<svg xmlns="http://www.w3.org/2000/svg" viewBox="0 0 1280 800" font-family="ui-sans-serif, system-ui, 'Segoe UI', sans-serif">
  <rect width="1280" height="800" fill="#0a0e13"/>
  <!-- sidebar -->
  <rect x="0" y="0" width="232" height="800" fill="#0d141b"/>
  <line x1="232" y1="0" x2="232" y2="800" stroke="#24313b"/>
  <text x="36" y="72" fill="#7ee7d6" font-size="29" font-weight="700">TillTally</text>
  <text x="36" y="98" fill="#748491" font-size="13" letter-spacing="1">RETAIL ANALYTICS</text>
  <g font-size="16">
    <rect x="24" y="134" width="184" height="40" rx="8" fill="#7ee7d6" opacity="0.14"/>
    <text x="44" y="160" fill="#f4f7fb">Dashboard</text>
    <text x="44" y="214" fill="#9aa7b1">Products</text>
    <text x="44" y="256" fill="#9aa7b1">Inventory</text>
    <text x="44" y="298" fill="#9aa7b1">Channels</text>
    <text x="44" y="340" fill="#9aa7b1">Weekly report</text>
    <text x="44" y="382" fill="#9aa7b1">Imports</text>
  </g>
  <rect x="24" y="724" width="184" height="44" rx="8" fill="#10151b" stroke="#24313b"/>
  <circle cx="48" cy="746" r="12" fill="#f48fb1" opacity="0.5"/>
  <text x="70" y="743" fill="#dce5ec" font-size="13">Auckland Store</text>
  <text x="70" y="759" fill="#748491" font-size="11">owner</text>

  <!-- header -->
  <text x="272" y="74" fill="#f4f7fb" font-size="29" font-weight="700">Sales Overview</text>
  <text x="272" y="100" fill="#748491" font-size="14">Auckland Charity Store &#183; last 30 days</text>
  <rect x="1066" y="48" width="178" height="40" rx="8" fill="#7ee7d6" opacity="0.16"/>
  <text x="1090" y="74" fill="#7ee7d6" font-size="14" font-weight="700">Import CSV</text>

  <!-- KPI cards -->
  <g>
    <rect x="272" y="130" width="230" height="116" rx="12" fill="#10151b" stroke="#24313b"/>
    <text x="294" y="164" fill="#748491" font-size="12" letter-spacing="1">TOTAL SALES</text>
    <text x="294" y="204" fill="#f4f7fb" font-size="32" font-weight="800">$48,210</text>
    <text x="294" y="230" fill="#7ee7d6" font-size="13">&#9650; 12% vs last week</text>

    <rect x="518" y="130" width="230" height="116" rx="12" fill="#10151b" stroke="#24313b"/>
    <text x="540" y="164" fill="#748491" font-size="12" letter-spacing="1">GROSS MARGIN</text>
    <text x="540" y="204" fill="#f4f7fb" font-size="32" font-weight="800">41.6%</text>
    <text x="540" y="230" fill="#7dd3fc" font-size="13">Healthy range</text>

    <rect x="764" y="130" width="230" height="116" rx="12" fill="#10151b" stroke="#24313b"/>
    <text x="786" y="164" fill="#748491" font-size="12" letter-spacing="1">ORDERS</text>
    <text x="786" y="204" fill="#f4f7fb" font-size="32" font-weight="800">612</text>
    <text x="786" y="230" fill="#9aa7b1" font-size="13">AOV $78.80</text>

    <rect x="1010" y="130" width="234" height="116" rx="12" fill="#10151b" stroke="#24313b"/>
    <text x="1032" y="164" fill="#748491" font-size="12" letter-spacing="1">LOW STOCK</text>
    <text x="1032" y="204" fill="#f48fb1" font-size="32" font-weight="800">12</text>
    <text x="1032" y="230" fill="#f48fb1" font-size="13">Reorder soon</text>
  </g>

  <!-- bar chart + trend line -->
  <rect x="272" y="270" width="606" height="300" rx="12" fill="#10151b" stroke="#24313b"/>
  <text x="296" y="308" fill="#f4f7fb" font-size="17" font-weight="700">Revenue by week</text>
  <g stroke="#24313b">
    <line x1="296" y1="370" x2="854" y2="370"/>
    <line x1="296" y1="430" x2="854" y2="430"/>
    <line x1="296" y1="490" x2="854" y2="490"/>
  </g>
  <g fill="#7ee7d6">
    <rect x="318" y="430" width="48" height="98" rx="4" opacity="0.5"/>
    <rect x="394" y="402" width="48" height="126" rx="4" opacity="0.6"/>
    <rect x="470" y="452" width="48" height="76" rx="4" opacity="0.45"/>
    <rect x="546" y="372" width="48" height="156" rx="4" opacity="0.75"/>
    <rect x="622" y="416" width="48" height="112" rx="4" opacity="0.55"/>
    <rect x="698" y="352" width="48" height="176" rx="4" fill="#7dd3fc" opacity="0.85"/>
    <rect x="774" y="392" width="48" height="136" rx="4" opacity="0.65"/>
  </g>
  <polyline points="342,452 418,420 494,470 570,392 646,436 722,372 798,408" fill="none" stroke="#f2c879" stroke-width="2.5" opacity="0.9"/>
  <g fill="#f2c879">
    <circle cx="342" cy="452" r="3"/><circle cx="418" cy="420" r="3"/><circle cx="494" cy="470" r="3"/>
    <circle cx="570" cy="392" r="3"/><circle cx="646" cy="436" r="3"/><circle cx="722" cy="372" r="3"/><circle cx="798" cy="408" r="3"/>
  </g>

  <!-- channel donut -->
  <rect x="894" y="270" width="350" height="300" rx="12" fill="#10151b" stroke="#24313b"/>
  <text x="918" y="308" fill="#f4f7fb" font-size="17" font-weight="700">Channel mix</text>
  <g transform="translate(1006,420)" fill="none" stroke-width="30">
    <circle r="74" stroke="#1b2530"/>
    <circle r="74" stroke="#7ee7d6" stroke-dasharray="232 465" transform="rotate(-90)"/>
    <circle r="74" stroke="#7dd3fc" stroke-dasharray="130 465" stroke-dashoffset="-232" transform="rotate(-90)"/>
    <circle r="74" stroke="#f48fb1" stroke-dasharray="103 465" stroke-dashoffset="-362" transform="rotate(-90)"/>
  </g>
  <g font-size="14">
    <rect x="1118" y="372" width="11" height="11" rx="3" fill="#7ee7d6"/><text x="1138" y="382" fill="#9aa7b1">Shopify 50%</text>
    <rect x="1118" y="406" width="11" height="11" rx="3" fill="#7dd3fc"/><text x="1138" y="416" fill="#9aa7b1">Trade Me 28%</text>
    <rect x="1118" y="440" width="11" height="11" rx="3" fill="#f48fb1"/><text x="1138" y="450" fill="#9aa7b1">In-store 22%</text>
  </g>

  <!-- product table -->
  <rect x="272" y="586" width="972" height="184" rx="12" fill="#10151b" stroke="#24313b"/>
  <text x="296" y="622" fill="#f4f7fb" font-size="17" font-weight="700">Product performance</text>
  <g font-size="12" fill="#748491" letter-spacing="0.5">
    <text x="296" y="652">PRODUCT</text>
    <text x="700" y="652">UNITS</text>
    <text x="800" y="652">MARGIN</text>
    <text x="940" y="652">STATUS</text>
  </g>
  <line x1="296" y1="664" x2="1220" y2="664" stroke="#24313b"/>
  <g font-size="14" fill="#dce5ec">
    <text x="296" y="692">Women's Jacket A</text><text x="700" y="692">24</text><text x="800" y="692" fill="#7ee7d6">58%</text>
    <rect x="940" y="678" width="96" height="22" rx="11" fill="#f48fb1" opacity="0.16"/><text x="954" y="693" fill="#f48fb1" font-size="12">Reorder</text>
    <text x="296" y="724">Homeware Mug Set</text><text x="700" y="724">61</text><text x="800" y="724" fill="#7ee7d6">55%</text>
    <rect x="940" y="710" width="104" height="22" rx="11" fill="#7ee7d6" opacity="0.16"/><text x="954" y="725" fill="#7ee7d6" font-size="12">Best seller</text>
    <text x="296" y="756">Vintage Lamp</text><text x="700" y="756">2</text><text x="800" y="756" fill="#9aa7b1">31%</text>
    <rect x="940" y="742" width="110" height="22" rx="11" fill="#f2c879" opacity="0.16"/><text x="954" y="757" fill="#f2c879" font-size="12">Slow mover</text>
  </g>
</svg>
